<?xml version="1.0" encoding="UTF-8" standalone="no"?>
<svg
   xmlns:dc="http://purl.org/dc/elements/1.1/"
   xmlns:cc="http://creativecommons.org/ns#"
   xmlns:rdf="http://www.w3.org/1999/02/22-rdf-syntax-ns#"
   xmlns:svg="http://www.w3.org/2000/svg"
   xmlns="http://www.w3.org/2000/svg"
   xmlns:sodipodi="http://sodipodi.sourceforge.net/DTD/sodipodi-0.dtd"
   xmlns:inkscape="http://www.inkscape.org/namespaces/inkscape"
   width="210mm"
   height="297mm"
   viewBox="0 0 210 297"
   version="1.1"
   id="svg8"
   inkscape:version="1.0.2-2 (e86c870879, 2021-01-15)"
   sodipodi:docname="krillin_v.svg">
  <defs
     id="defs2" />
  <sodipodi:namedview
     id="base"
     pagecolor="#ffffff"
     bordercolor="#666666"
     borderopacity="1.0"
     inkscape:pageopacity="0.0"
     inkscape:pageshadow="2"
     inkscape:zoom="0.7"
     inkscape:cx="583.1421"
     inkscape:cy="508.20625"
     inkscape:document-units="mm"
     inkscape:current-layer="layer3"
     inkscape:document-rotation="0"
     showgrid="false"
     inkscape:window-width="1920"
     inkscape:window-height="1017"
     inkscape:window-x="-8"
     inkscape:window-y="-8"
     inkscape:window-maximized="1"
     showguides="true"
     inkscape:guide-bbox="true" />
  <metadata
     id="metadata5">
    <rdf:RDF>
      <cc:Work
         rdf:about="">
        <dc:format>image/svg+xml</dc:format>
        <dc:type
           rdf:resource="http://purl.org/dc/dcmitype/StillImage" />
        <dc:title />
      </cc:Work>
    </rdf:RDF>
  </metadata>
  <g
     inkscape:groupmode="layer"
     id="layer1"
     inkscape:label="Letras"
     style="display:inline">
    <g
       id="g1440"
       transform="matrix(1.2321115,0,0,1.2352852,117.52548,-6.9792819)"
       style="stroke-width:1.07232;stroke-miterlimit:4;stroke-dasharray:none">
      <g
         id="g1359"
         transform="matrix(0.99967116,-0.0255774,0.02570933,0.99967116,160.41854,-5.2485201)"
         style="stroke-width:1.07232;stroke-miterlimit:4;stroke-dasharray:none">
        <ellipse
           style="fill:#ff7f2a;fill-opacity:1;stroke:#000000;stroke-width:1.07232;stroke-linecap:round;stroke-linejoin:round;stroke-miterlimit:4;stroke-dasharray:none;stroke-opacity:1"
           id="ellipse1268"
           cx="-149.96201"
           cy="161.89949"
           rx="11.404136"
           ry="12.792981"
           transform="rotate(10.640989)" />
        <path
           id="path1270"
           style="fill:#ff0000;fill-opacity:1;stroke:none;stroke-width:1.07232;stroke-linecap:round;stroke-linejoin:round;stroke-miterlimit:4;stroke-dasharray:none;stroke-opacity:1"
           inkscape:transform-center-x="-0.052465439"
           inkscape:transform-center-y="-0.34016342"
           d="m -181.77109,134.51736 2.47368,0.20556 1.57201,-1.92222 0.56856,2.41729 2.31277,0.90143 -2.12229,1.28841 -0.14263,2.47934 -1.88021,-1.62102 -2.40092,0.63089 0.96025,-2.29025 z" />
        <path
           id="path1272"
           style="fill:#ff0000;fill-opacity:1;stroke:none;stroke-width:1.07232;stroke-linecap:round;stroke-linejoin:round;stroke-miterlimit:4;stroke-dasharray:none;stroke-opacity:1"
           inkscape:transform-center-x="-0.052465439"
           inkscape:transform-center-y="-0.34016342"
           d="m -184.31652,126.50171 2.47368,0.20557 1.572,-1.92223 0.56857,2.41729 2.31277,0.90144 -2.12229,1.2884 -0.14263,2.47934 -1.88021,-1.62101 -2.40093,0.63088 0.96026,-2.29024 z" />
        <path
           id="path1276"
           style="fill:#ff0000;fill-opacity:1;stroke:none;stroke-width:1.07232;stroke-linecap:round;stroke-linejoin:round;stroke-miterlimit:4;stroke-dasharray:none;stroke-opacity:1"
           inkscape:transform-center-x="-0.052465439"
           inkscape:transform-center-y="-0.34016342"
           d="m -175.27284,128.63294 2.47368,0.20557 1.57201,-1.92223 0.56856,2.41729 2.31277,0.90144 -2.12229,1.2884 -0.14263,2.47934 -1.88021,-1.62101 -2.40092,0.63088 0.96025,-2.29024 z" />
        <g
           id="g1292"
           style="font-style:normal;font-weight:normal;font-size:32.0151px;line-height:1.25;font-family:sans-serif;fill:#fd0000;fill-opacity:1;stroke:#000000;stroke-width:1.07232;stroke-miterlimit:4;stroke-dasharray:none"
           transform="rotate(-0.44521595,3905.4577,-4419.6673)">
          <path
             d="m -218.82171,109.10311 c -2.04932,0.36861 -3.95929,-0.0989 -5.88769,-0.45574 l -0.52759,-3.42578 -4.05127,-0.99842 -2.22934,4.26904 -6.47595,-2.07576 c 3.879,-6.3134 7.97219,-12.473817 12.72768,-18.16116 l 4.85449,1.126623 z"
             style="opacity:1;fill:#fd0000;fill-opacity:1;stroke-width:1.07232;stroke-miterlimit:4;stroke-dasharray:none"
             id="path1288"
             sodipodi:nodetypes="ccccccccc" />
          <path
             style="fill:#000000;fill-opacity:1;stroke:none;stroke-width:1.07232;stroke-linecap:butt;stroke-linejoin:miter;stroke-miterlimit:4;stroke-dasharray:none;stroke-opacity:1"
             d="m -225.20798,95.68249 c -0.81956,1.236121 -1.41911,2.472242 -2.07134,3.708364 l 2.13815,0.467722 z"
             id="path1290"
             sodipodi:nodetypes="cccc" />
        </g>
        <g
           id="g1286"
           transform="rotate(6.2872855,-150.79965,117.1905)"
           style="font-style:normal;font-weight:normal;font-size:32.0151px;line-height:1.25;font-family:sans-serif;fill:#fd0000;fill-opacity:1;stroke:#000000;stroke-width:1.07232;stroke-miterlimit:4;stroke-dasharray:none">
          <path
             d="m -190.76914,142.55216 c -2.0149,1.76718 -6.46811,2.11394 -9.34917,1.02913 -2.88105,-1.08479 -6.54317,-4.51485 -5.74953,-10.0537 0.79366,-5.53885 3.48761,-8.99916 7.33876,-10.17318 3.85113,-1.17404 7.79614,0.36171 9.26379,1.63502 l -2.64657,6.06092 c 0,0 -4.71766,-2.4291 -6.58956,-0.45435 -1.8719,1.97473 -1.75757,4.82938 -0.6669,6.50267 1.09068,1.67332 4.70779,0.74022 6.88332,-0.54234 z"
             style="opacity:1;fill:#fd0000;fill-opacity:1;stroke-width:1.07232;stroke-linejoin:round;stroke-miterlimit:4;stroke-dasharray:none"
             id="path1280"
             sodipodi:nodetypes="czzzcczzcc" />
          <path
             style="fill:#fd0000;fill-opacity:1;stroke:#000000;stroke-width:1.07232;stroke-linecap:butt;stroke-linejoin:miter;stroke-miterlimit:4;stroke-dasharray:none;stroke-opacity:1"
             d="m -198.63685,143.90103 -3.00678,4.6104 6.1472,1.5368 0.0668,-5.74629 z"
             id="path1282" />
        </g>
        <g
           id="g1266"
           style="font-style:normal;font-weight:normal;font-size:32.0151px;line-height:1.25;font-family:sans-serif;fill:#fd0000;fill-opacity:1;stroke:#000000;stroke-width:1.07232;stroke-miterlimit:4;stroke-dasharray:none"
           transform="rotate(-0.44521595,3484.7998,-2061.1221)">
          <path
             d="m -218.82171,109.10311 c -2.04932,0.36861 -3.95929,-0.0989 -5.88769,-0.45574 l -0.52759,-3.42578 -4.05127,-0.99842 -2.22934,4.26904 -6.47595,-2.07576 c 3.879,-6.3134 7.97219,-12.473817 12.72768,-18.16116 l 4.85449,1.126623 z"
             style="opacity:1;fill:#fd0000;fill-opacity:1;stroke-width:1.07232;stroke-miterlimit:4;stroke-dasharray:none"
             id="path1262"
             sodipodi:nodetypes="ccccccccc" />
          <path
             style="fill:#000000;fill-opacity:1;stroke:none;stroke-width:1.07232;stroke-linecap:butt;stroke-linejoin:miter;stroke-miterlimit:4;stroke-dasharray:none;stroke-opacity:1"
             d="m -225.20798,95.68249 c -0.81956,1.236121 -1.41911,2.472242 -2.07134,3.708364 l 2.13815,0.467722 z"
             id="path1264"
             sodipodi:nodetypes="cccc" />
        </g>
        <path
           d="m -229.79038,135.40272 6.96583,-22.14229 c 6.5354,0.67415 14.38726,2.01531 13.27776,7.92097 -1.10951,5.90567 -6.90877,6.49979 -11.60204,5.79293 l -1.47714,9.36263 z m 10.82333,-16.22818 -0.98022,3.21939 c 0,0 3.55688,0.40896 3.85962,-1.12435 0.31876,-1.61449 -2.8794,-2.09504 -2.8794,-2.09504 z"
           style="font-style:normal;font-variant:normal;font-weight:bold;font-stretch:normal;font-size:32.0151px;line-height:1.25;font-family:Arial;-inkscape-font-specification:'Arial, Bold';font-variant-ligatures:normal;font-variant-caps:normal;font-variant-numeric:normal;font-variant-east-asian:normal;text-align:center;text-anchor:middle;fill:#fd0000;fill-opacity:1;stroke:#000000;stroke-width:1.07232;stroke-miterlimit:4;stroke-dasharray:none"
           id="path1260"
           sodipodi:nodetypes="cczcccccsc" />
        <path
           d="m -233.02691,136.99013 c -0.18905,-8.65485 0.93109,-18.31576 2.92932,-23.20053 h 4.62719 c -1.24309,6.978 -3.08307,13.20976 -2.92932,23.20053 z"
           style="font-style:normal;font-weight:normal;font-size:32.0151px;line-height:1.25;font-family:sans-serif;fill:#ffcc00;fill-opacity:1;stroke:#000000;stroke-width:1.07232;stroke-miterlimit:4;stroke-dasharray:none"
           id="path1258"
           sodipodi:nodetypes="ccccc" />
        <path
           d="m -230.90026,134.01956 c -2.0149,1.76718 -6.46811,2.11394 -9.34917,1.02913 -2.88105,-1.08479 -6.54317,-4.51485 -5.74953,-10.0537 0.79366,-5.53885 3.48761,-8.99916 7.33876,-10.17318 3.85113,-1.17404 7.79614,0.36171 9.26379,1.63502 l -2.64657,6.06092 c 0,0 -4.71766,-2.4291 -6.58956,-0.45435 -1.8719,1.97473 -1.75757,4.82938 -0.6669,6.50267 1.09068,1.67332 4.70779,0.74022 6.88332,-0.54234 z"
           style="font-style:normal;font-weight:normal;font-size:32.0151px;line-height:1.25;font-family:sans-serif;fill:#ffcc00;fill-opacity:1;stroke:#000000;stroke-width:1.07232;stroke-linejoin:round;stroke-miterlimit:4;stroke-dasharray:none"
           id="path1278"
           sodipodi:nodetypes="czzzcczzcc" />
        <path
           d="m -248.53757,135.30065 c -0.18905,-8.65485 0.93109,-18.31576 2.92932,-23.20053 h 4.62719 c -1.24309,6.978 -3.08307,13.20976 -2.92932,23.20053 z"
           style="font-style:normal;font-weight:normal;font-size:32.0151px;line-height:1.25;font-family:sans-serif;fill:#ffcc00;fill-opacity:1;stroke:#000000;stroke-width:1.07232;stroke-miterlimit:4;stroke-dasharray:none"
           id="path1256"
           sodipodi:nodetypes="ccccc" />
        <path
           d="m -257.30728,135.12262 c -0.3252,-5.80035 0.51844,-11.97035 2.14765,-17.57025 l -6.50988,-0.44676 0.77888,-5.30095 18.21171,3.0736 -0.30641,5.96241 -7.07465,-2.24887 c -2.14031,7.59168 -1.07832,10.35306 -0.91923,16.53082 z"
           style="font-style:normal;font-weight:normal;font-size:32.0151px;line-height:1.25;font-family:sans-serif;fill:#ffcc00;fill-opacity:1;stroke:#000000;stroke-width:1.07232;stroke-miterlimit:4;stroke-dasharray:none"
           id="path1051"
           sodipodi:nodetypes="ccccccccc" />
        <path
           d="m -270.00199,136.33953 c -1.71018,-7.17795 -0.5923,-14.55629 -0.87422,-21.77631 6.29252,-1.40673 11.92542,-1.05276 13.21882,3.12907 1.29339,4.18183 -0.63437,6.16111 -1.69095,7.82983 1.062,3.88153 2.27964,7.31081 2.84376,9.06799 -2.84813,0.70718 -5.36209,0.48844 -5.36209,0.48844 -0.45792,-1.64694 -1.59038,-6.40564 -1.59038,-6.40564 l -1.98332,0.1763 0.81081,6.57575 z m 5.15746,-13.41305 c 1.1723,-0.31665 2.49608,-0.89034 2.26376,-2.15877 -0.23229,-1.26843 -1.57541,-1.40644 -2.66098,-1.20833 z"
           style="font-style:normal;font-weight:normal;font-size:32.0151px;line-height:1.25;font-family:sans-serif;fill:#ffcc00;fill-opacity:1;stroke:#000000;stroke-width:1.07232;stroke-miterlimit:4;stroke-dasharray:none"
           id="path1254"
           sodipodi:nodetypes="cczcccccccczcc" />
        <g
           id="g1252"
           style="font-style:normal;font-weight:normal;font-size:32.0151px;line-height:1.25;font-family:sans-serif;fill:#fd0000;fill-opacity:1;stroke:#000000;stroke-width:1.07232;stroke-miterlimit:4;stroke-dasharray:none"
           transform="rotate(-14.365073,-139.21638,314.79444)">
          <path
             d="m -218.82171,109.10311 c -2.04932,0.36861 -3.95929,-0.0989 -5.88769,-0.45574 l -0.52759,-3.42578 -4.05127,-0.99842 -2.22934,4.26904 -6.47595,-2.07576 c 3.879,-6.3134 7.97219,-12.473817 12.72768,-18.16116 l 4.85449,1.126623 z"
             style="opacity:1;fill:#ffcc00;fill-opacity:1;stroke-width:1.07232;stroke-miterlimit:4;stroke-dasharray:none"
             id="path1248"
             sodipodi:nodetypes="ccccccccc" />
          <path
             style="fill:#000000;stroke:none;stroke-width:1.07232;stroke-linecap:butt;stroke-linejoin:miter;stroke-miterlimit:4;stroke-dasharray:none;stroke-opacity:1"
             d="m -225.20798,95.68249 c -0.81956,1.236121 -1.41911,2.472242 -2.07134,3.708364 l 2.13815,0.467722 z"
             id="path1250"
             sodipodi:nodetypes="cccc" />
        </g>
        <path
           d="m -294.82964,139.93469 1.1359,-23.18432 c 6.49328,-1.00162 14.42896,-1.69106 14.85003,4.30315 0.42106,5.99421 -5.0391,8.03653 -9.75849,8.54033 l 0.94019,9.43169 z m 6.36443,-18.43887 -0.13363,3.36265 c 0,0 3.5446,-0.50444 3.44947,-2.06445 -0.10016,-1.6426 -3.31584,-1.2982 -3.31584,-1.2982 z"
           style="font-style:normal;font-variant:normal;font-weight:bold;font-stretch:normal;font-size:32.0151px;line-height:1.25;font-family:Arial;-inkscape-font-specification:'Arial, Bold';font-variant-ligatures:normal;font-variant-caps:normal;font-variant-numeric:normal;font-variant-east-asian:normal;text-align:center;text-anchor:middle;fill:#ffcc00;fill-opacity:1;stroke:#000000;stroke-width:1.07232;stroke-miterlimit:4;stroke-dasharray:none"
           id="path1240"
           sodipodi:nodetypes="cczcccccsc" />
        <path
           style="fill:#fd0000;fill-opacity:1;stroke:#000000;stroke-width:1.07232;stroke-linecap:butt;stroke-linejoin:miter;stroke-miterlimit:4;stroke-dasharray:none;stroke-opacity:1"
           d="m -191.4624,117.56632 3.86509,-3.17663 3.45211,0.67533 1.3519,3.88684 -2.55041,-0.0765 -1.0846,-2.05544 -2.59483,1.52892 z"
           id="path1442"
           sodipodi:nodetypes="cccccccc" />
      </g>
      <g
         id="g1387"
         transform="translate(165.57231,2.7644076)"
         style="stroke-width:1.07232;stroke-miterlimit:4;stroke-dasharray:none">
        <g
           id="g1083"
           transform="matrix(0.8985675,0.16882777,-0.16891394,0.89902611,-149.82796,66.783801)"
           style="stroke-width:1.17254;stroke-miterlimit:4;stroke-dasharray:none">
          <ellipse
             style="fill:#ff7f2a;fill-opacity:1;stroke:#000000;stroke-width:1.17254;stroke-linecap:round;stroke-linejoin:round;stroke-miterlimit:4;stroke-dasharray:none;stroke-opacity:1"
             id="ellipse1079"
             cx="-90.714287"
             cy="38.931545"
             rx="12.473214"
             ry="13.985119" />
          <path
             id="path1081"
             style="fill:#ff0000;fill-opacity:1;stroke:none;stroke-width:1.17254;stroke-linecap:round;stroke-linejoin:round;stroke-miterlimit:4;stroke-dasharray:none;stroke-opacity:1"
             inkscape:transform-center-x="-0.052465439"
             inkscape:transform-center-y="-0.34016342"
             d="m -90.475013,41.738511 2.700565,-0.278487 1.301581,-2.38254 1.099378,2.482334 2.668141,0.501632 -2.021114,1.812654 0.347421,2.692565 -2.348494,-1.362053 -2.453424,1.162466 0.569665,-2.654449 z" />
          <path
             id="path1112"
             style="fill:#ff0000;fill-opacity:1;stroke:none;stroke-width:1.17254;stroke-linecap:round;stroke-linejoin:round;stroke-miterlimit:4;stroke-dasharray:none;stroke-opacity:1"
             inkscape:transform-center-x="-0.052465439"
             inkscape:transform-center-y="-0.34016342"
             d="m -96.570985,35.174919 2.700565,-0.278487 1.301581,-2.38254 1.099378,2.482334 2.668141,0.501632 -2.021114,1.812654 0.347421,2.692565 -2.348494,-1.362053 -2.453424,1.162466 0.569665,-2.654449 z" />
        </g>
        <g
           id="g1238"
           style="font-style:normal;font-weight:normal;font-size:32.0151px;line-height:1.25;font-family:sans-serif;fill:#fd0000;fill-opacity:1;stroke:#000000;stroke-width:1.07232;stroke-miterlimit:4;stroke-dasharray:none"
           transform="rotate(-0.44521595,496.88508,-11348.17)">
          <path
             d="m -218.82171,109.10311 c -2.04932,0.36861 -3.95929,-0.0989 -5.88769,-0.45574 l -0.52759,-3.42578 -4.05127,-0.99842 -2.22934,4.26904 -6.47595,-2.07576 c 3.879,-6.3134 7.97219,-12.473817 12.72768,-18.16116 l 4.85449,1.126623 z"
             style="opacity:1;fill:#fd0000;fill-opacity:1;stroke-width:1.07232;stroke-miterlimit:4;stroke-dasharray:none"
             id="path1234"
             sodipodi:nodetypes="ccccccccc" />
          <path
             style="fill:#000000;fill-opacity:1;stroke:none;stroke-width:1.07232;stroke-linecap:butt;stroke-linejoin:miter;stroke-miterlimit:4;stroke-dasharray:none;stroke-opacity:1"
             d="m -225.20798,95.68249 c -0.81956,1.236121 -1.41911,2.472242 -2.07134,3.708364 l 2.13815,0.467722 z"
             id="path1236"
             sodipodi:nodetypes="cccc" />
        </g>
        <path
           d="m -153.82303,88.201577 5.41352,1.583345 c -1.69954,4.052532 -4.98084,11.200618 -4.30469,14.248528 0.24533,1.10594 2.9775,1.74454 4.39332,1.58741 1.69194,-0.18772 2.94972,-8.281311 3.79243,-14.616621 l 5.66828,1.573679 c -1.77987,6.029371 -2.60822,11.548182 -4.97967,15.983552 -1.7796,3.18161 -7.86549,1.02405 -7.86549,1.02405 0,0 -6.82853,-1.93903 -6.67626,-5.38539 0.7599,-5.039601 3.02441,-10.746233 4.55856,-15.99855 z"
           style="font-style:normal;font-variant:normal;font-weight:bold;font-stretch:normal;font-size:32.0151px;line-height:1.25;font-family:Arial;-inkscape-font-specification:'Arial, Bold';font-variant-ligatures:normal;font-variant-caps:normal;font-variant-numeric:normal;font-variant-east-asian:normal;text-align:center;text-anchor:middle;fill:#fd0000;fill-opacity:1;stroke:#000000;stroke-width:1.07232;stroke-miterlimit:4;stroke-dasharray:none"
           id="path1041"
           sodipodi:nodetypes="ccssccccccc" />
        <g
           id="g1232"
           style="font-style:normal;font-weight:normal;font-size:32.0151px;line-height:1.25;font-family:sans-serif;fill:#fd0000;fill-opacity:1;stroke:#000000;stroke-width:1.07232;stroke-miterlimit:4;stroke-dasharray:none"
           transform="rotate(5.035671,-122.61277,584.63937)">
          <path
             d="m -218.82171,109.10311 c -2.04932,0.36861 -3.95929,-0.0989 -5.88769,-0.45574 l -0.52759,-3.42578 -4.05127,-0.99842 -2.22934,4.26904 -6.47595,-2.07576 c 3.879,-6.3134 7.97219,-12.473817 12.72768,-18.16116 l 4.85449,1.126623 z"
             style="opacity:1;fill:#fd0000;fill-opacity:1;stroke-width:1.07232;stroke-miterlimit:4;stroke-dasharray:none"
             id="path1228"
             sodipodi:nodetypes="ccccccccc" />
          <path
             style="fill:#000000;fill-opacity:1;stroke:none;stroke-width:1.07232;stroke-linecap:butt;stroke-linejoin:miter;stroke-miterlimit:4;stroke-dasharray:none;stroke-opacity:1"
             d="m -225.20798,95.68249 c -0.81956,1.236121 -1.41911,2.472242 -2.07134,3.708364 l 2.13815,0.467722 z"
             id="path1230"
             sodipodi:nodetypes="cccc" />
        </g>
        <path
           d="m -200.53217,98.403323 5.87992,-19.589065 7.43352,2.138156 -4.14268,12.386991 5.75913,1.135894 -2.09786,7.359451 z"
           style="font-style:normal;font-variant:normal;font-weight:bold;font-stretch:normal;font-size:32.0151px;line-height:1.25;font-family:Arial;-inkscape-font-specification:'Arial, Bold';font-variant-ligatures:normal;font-variant-caps:normal;font-variant-numeric:normal;font-variant-east-asian:normal;text-align:center;text-anchor:middle;fill:#fd0000;fill-opacity:1;stroke:#000000;stroke-width:1.07232;stroke-miterlimit:4;stroke-dasharray:none"
           id="path1035"
           sodipodi:nodetypes="ccccccc" />
        <path
           d="m -211.8021,97.898843 4.63186,-21.83799 14.85139,3.548484 -2.64414,4.252437 -7.66146,-1.476732 -1.16774,3.15574 5.81985,1.089968 -1.37123,4.504446 -5.35212,-1.156788 -1.0175,4.285034 8.35604,0.435697 -1.77213,5.907581 z"
           style="font-style:normal;font-variant:normal;font-weight:bold;font-stretch:normal;font-size:32.0151px;line-height:1.25;font-family:Arial;-inkscape-font-specification:'Arial, Bold';font-variant-ligatures:normal;font-variant-caps:normal;font-variant-numeric:normal;font-variant-east-asian:normal;text-align:center;text-anchor:middle;fill:#fd0000;fill-opacity:1;stroke:#000000;stroke-width:1.07232;stroke-miterlimit:4;stroke-dasharray:none"
           id="path1033"
           sodipodi:nodetypes="ccccccccccccc" />
        <path
           d="m -260.17438,76.479946 c 6.08582,-1.001582 19.09399,0.908986 19.78543,7.585435 0.69144,6.67645 -6.77505,13.593284 -22.5618,14.641585 z m 5.5162,7.416119 -0.29718,6.2169 c 0,0 5.89065,-0.23895 6.16725,-3.560617 0.2766,-3.321668 -5.87007,-2.656283 -5.87007,-2.656283 z"
           style="font-style:normal;font-weight:normal;font-size:32.0151px;line-height:1.25;font-family:sans-serif;fill:#ffcc00;fill-opacity:1;stroke:#000000;stroke-width:1.07232;stroke-miterlimit:4;stroke-dasharray:none"
           id="path1027"
           sodipodi:nodetypes="czcccczc" />
        <g
           id="g1110"
           style="font-style:normal;font-weight:normal;font-size:32.0151px;line-height:1.25;font-family:sans-serif;fill:#fd0000;fill-opacity:1;stroke:#000000;stroke-width:1.07232;stroke-miterlimit:4;stroke-dasharray:none"
           transform="rotate(-14.365073,-286.77107,252.95328)">
          <path
             d="m -218.82171,109.10311 c -2.04932,0.36861 -3.95929,-0.0989 -5.88769,-0.45574 l -0.52759,-3.42578 -4.05127,-0.99842 -2.22934,4.26904 -6.47595,-2.07576 c 3.879,-6.3134 7.97219,-12.473817 12.72768,-18.16116 l 4.85449,1.126623 z"
             style="opacity:1;fill:#ffcc00;fill-opacity:1;stroke-width:1.07232;stroke-miterlimit:4;stroke-dasharray:none"
             id="path1025"
             sodipodi:nodetypes="ccccccccc" />
          <path
             style="fill:#000000;stroke:none;stroke-width:1.07232;stroke-linecap:butt;stroke-linejoin:miter;stroke-miterlimit:4;stroke-dasharray:none;stroke-opacity:1"
             d="m -225.20798,95.68249 c -0.81956,1.236121 -1.41911,2.472242 -2.07134,3.708364 l 2.13815,0.467722 z"
             id="path1106"
             sodipodi:nodetypes="cccc" />
        </g>
        <path
           d="m -281.9717,96.588019 -0.59702,-4.83618 c 4.64005,-1.959911 8.66642,-2.874452 12.80768,-3.088623 1.35057,9.213073 -4.03143,13.911194 -10.08498,14.331494 -6.05356,0.4203 -9.92918,-4.857251 -9.50437,-10.935307 0.42481,-6.078058 5.06486,-11.088785 8.21481,-11.818423 3.14995,-0.729637 7.46681,-0.03584 9.16349,1.230759 l -1.16997,5.468881 c 0,0 -5.65295,-1.980778 -8.09921,1.540483 -2.44626,3.521261 -1.57636,6.565096 -0.73043,8.106916 0.84594,1.54182 6.40628,1.13962 6.63889,-1.55952 z"
           style="font-style:normal;font-weight:normal;font-size:32.0151px;line-height:1.25;font-family:sans-serif;fill:#ffcc00;fill-opacity:1;stroke:#000000;stroke-width:1.07232;stroke-linejoin:round;stroke-miterlimit:4;stroke-dasharray:none"
           id="path1023"
           sodipodi:nodetypes="ccczzzcczzcc" />
        <path
           d="m -291.22424,102.88341 c -0.18905,-8.654852 0.93109,-18.315758 2.92932,-23.200531 h 4.62719 c -1.24309,6.978004 -3.08307,13.209756 -2.92932,23.200531 z"
           style="font-style:normal;font-weight:normal;font-size:32.0151px;line-height:1.25;font-family:sans-serif;fill:#ffcc00;fill-opacity:1;stroke:#000000;stroke-width:1.07232;stroke-miterlimit:4;stroke-dasharray:none"
           id="path1021"
           sodipodi:nodetypes="ccccc" />
        <path
           d="m -306.7813,104.92575 c -0.53295,-8.019511 2.10402,-16.258994 3.11647,-24.062637 7.03121,-0.360319 13.03132,1.049259 13.66163,5.775667 0.63031,4.726408 -1.25826,7.224772 -2.69992,8.823374 0.43591,4.361685 0.66263,7.018976 0.94971,9.008766 -3.90898,-0.0741 -2.04493,-0.0601 -5.95065,0.0661 -0.19283,-1.852 -0.63329,-6.646681 -0.63329,-6.646681 l -2.16747,-0.17319 -0.3256,7.208551 z m 7.99752,-13.458925 c 1.31987,-0.125719 2.84968,-0.499742 2.83074,-1.904111 -0.0189,-1.404368 -1.4398,-1.798032 -2.64468,-1.783719 z"
           style="font-style:normal;font-weight:normal;font-size:32.0151px;line-height:1.25;font-family:sans-serif;fill:#ffcc00;fill-opacity:1;stroke:#000000;stroke-width:1.07232;stroke-miterlimit:4;stroke-dasharray:none"
           id="path1019"
           sodipodi:nodetypes="cczcccccccczcc" />
        <path
           d="m -318.45609,84.167379 c 0,0 2.66429,-0.864114 6.72174,-0.701583 4.05744,0.162531 8.09585,1.375967 8.44272,4.699268 0.34688,3.323301 -2.32226,6.167298 -3.45413,6.808572 0.77822,0.584033 3.15176,1.764983 2.37469,5.767714 -0.77707,4.00274 -7.37113,6.49912 -14.58615,6.67717 z m 5.56708,4.746096 0.0945,3.551234 c 1.34257,-0.263302 3.48871,-1.435246 3.13034,-2.476154 -0.35838,-1.040908 -1.95861,-1.122323 -3.22484,-1.07508 z m -0.49609,9.846004 -0.28348,2.915091 c 1.50009,-0.31442 3.59969,-1.22941 3.24215,-2.339961 -0.35755,-1.11055 -1.80627,-1.03687 -2.95867,-0.57513 z"
           style="font-style:normal;font-weight:normal;font-size:32.0151px;line-height:1.25;font-family:sans-serif;fill:#ffcc00;fill-opacity:1;stroke:#000000;stroke-width:1.07232;stroke-miterlimit:4;stroke-dasharray:none"
           id="path1017"
           sodipodi:nodetypes="czzczcccczccczc" />
        <path
           d="m -220.31351,99.745824 1.1359,-23.184318 c 6.49328,-1.001615 14.42896,-1.691052 14.85003,4.303157 0.42106,5.994209 -5.0391,8.036525 -9.75849,8.540325 l 0.94019,9.431685 z m 6.36443,-18.438863 -0.13363,3.362649 c 0,0 3.5446,-0.504443 3.44947,-2.064452 -0.10016,-1.642597 -3.31584,-1.298197 -3.31584,-1.298197 z"
           style="font-style:normal;font-variant:normal;font-weight:bold;font-stretch:normal;font-size:32.0151px;line-height:1.25;font-family:Arial;-inkscape-font-specification:'Arial, Bold';font-variant-ligatures:normal;font-variant-caps:normal;font-variant-numeric:normal;font-variant-east-asian:normal;text-align:center;text-anchor:middle;fill:#fd0000;fill-opacity:1;stroke:#000000;stroke-width:1.07232;stroke-miterlimit:4;stroke-dasharray:none"
           id="path1031"
           sodipodi:nodetypes="cczcccccsc" />
        <path
           d="m -173.02032,100.16982 5.65272,-1.035041 c -10e-4,3.719391 6.88463,5.330011 7.05334,3.242561 0.16871,-2.08745 -3.34325,-2.26566 -4.85893,-3.101061 -2.95052,-1.68479 -5.40981,-5.031677 -4.18755,-8.67427 1.22227,-3.642595 6.01333,-4.677677 8.8353,-4.081453 2.82196,0.59622 7.02631,3.1027 8.76863,7.351558 l -6.48951,0.687823 c -0.55502,-3.394203 -4.79356,-3.243905 -5.20983,-1.521979 -0.4163,1.721919 1.8635,1.853132 4.64665,3.114661 2.78314,1.26153 5.44337,2.94923 4.87133,7.100581 -0.57204,4.15136 -5.99197,5.67875 -9.89962,4.99795 -3.90766,-0.6808 -8.06656,-2.89906 -9.18253,-8.08133 z"
           style="font-style:normal;font-variant:normal;font-weight:bold;font-stretch:normal;font-size:32.0151px;line-height:1.25;font-family:Arial;-inkscape-font-specification:'Arial, Bold';font-variant-ligatures:normal;font-variant-caps:normal;font-variant-numeric:normal;font-variant-east-asian:normal;text-align:center;text-anchor:middle;fill:#fd0000;fill-opacity:1;stroke:#000000;stroke-width:1.07232;stroke-miterlimit:4;stroke-dasharray:none"
           id="path1039"
           sodipodi:nodetypes="cczczzcczzzzc" />
        <g
           id="g1077"
           transform="matrix(0.91429009,0,0,0.91475672,-239.78117,63.320662)"
           style="stroke-width:1.17254;stroke-miterlimit:4;stroke-dasharray:none">
          <ellipse
             style="fill:#ff7f2a;fill-opacity:1;stroke:#000000;stroke-width:1.17254;stroke-linecap:round;stroke-linejoin:round;stroke-miterlimit:4;stroke-dasharray:none;stroke-opacity:1"
             id="path1070"
             cx="-90.714287"
             cy="38.931545"
             rx="12.473214"
             ry="13.985119" />
          <path
             id="path1072"
             style="fill:#ff0000;fill-opacity:1;stroke:none;stroke-width:1.17254;stroke-linecap:round;stroke-linejoin:round;stroke-miterlimit:4;stroke-dasharray:none;stroke-opacity:1"
             inkscape:transform-center-x="-0.08274627"
             inkscape:transform-center-y="-0.53649445"
             d="m -96.889633,36.748971 4.25925,-0.439221 2.052814,-3.757669 1.733906,3.915061 4.20811,0.791159 -3.187639,2.858862 0.547942,4.246632 -3.703974,-2.148188 -3.869465,1.833405 0.898458,-4.186516 z" />
        </g>
      </g>
    </g>
  </g>
  <g
     inkscape:groupmode="layer"
     id="layer3"
     inkscape:label="sombras">
    <path
       id="path874-3"
       style="display:inline;opacity:0.754425;fill:#ff5555;fill-opacity:1;stroke:#ff8080;stroke-width:2.91042;stroke-linecap:round;stroke-linejoin:round;stroke-miterlimit:4;stroke-dasharray:none;stroke-opacity:1"
       d="m 211.20451,66.399471 c -40.16269,0.01582 -40.19223,40.164559 -39.55605,46.827929 0.21453,2.24718 0.61683,4.66034 1.14769,7.13872 -1.27117,-1.87005 -3.30781,-3.96831 -5.77274,-3.23588 -4.215,1.25245 -4.62799,11.32784 -3.17068,17.09169 1.45731,5.76386 9.27969,13.21829 12.89102,12.86118 2.32018,-0.22944 3.27275,-2.12179 3.70225,-3.44587 1.07352,2.44022 2.06726,4.44305 2.84852,5.74291 0.99203,1.65056 8.33676,4.86678 15.42401,7.25365 l -0.75205,4.68142 c -2.57941,0.51035 -5.13602,1.16735 -7.67029,1.96661 -11.28023,-0.72382 -27.69553,7.24656 -28.79079,10.28783 l 0.0884,0.23485 c -1.33409,1.09046 -2.70406,2.76137 -4.24875,5.17651 -0.83451,1.30478 -1.25445,3.84799 -2.23626,7.18513 -0.88616,3.012 -3.19189,18.27349 -2.8513,20.31098 -2.0328,3.51232 -2.3291,16.63913 -2.3291,16.63913 19.50403,2.85883 24.75155,0.96549 32.7826,0 0,0 0.0569,-0.72018 0.12156,-1.75387 35.97335,1.39836 53.57237,2.36598 73.39738,1.74455 l -1.07033,-8.52464 c 2.79382,0.83543 5.27358,1.2503 6.8149,1.30574 10.17279,0.36601 21.16218,-9.69823 18.845,-23.20095 1.24443,-3.76153 0.64526,-7.07134 -0.4951,-8.6163 1.30992,-2.46384 -0.0362,-6.7319 -2.20533,-6.34576 0,0 3.90124,-4.34879 4.82508,-10.01653 0.17817,-1.093 -0.93219,-4.04685 -2.16388,-4.40844 0.68261,-1.08731 0.41117,-3.00348 -0.43653,-5.12347 -0.84769,-2.11998 -4.34765,-1.87819 -4.34765,-1.87819 -0.13954,-7.70505 3.90025,-12.31908 -0.25198,-13.03635 -4.15223,-0.71728 -8.0017,15.58927 -8.70969,15.01566 -0.8227,0.91272 -3.0017,-16.46512 -7.3078,-14.94991 -4.3061,1.51522 -0.90396,9.74322 -0.85317,16.54519 -0.47881,0.66921 -0.75216,1.8882 0.0331,3.14526 -1.58112,1.07381 -3.54764,1.376 -3.55085,3.35855 0.0631,4.10604 -0.2499,8.08478 3.5619,10.04138 0,0 -0.0549,0.57943 -0.10776,1.08858 -0.0665,-0.0233 -0.13571,-0.0452 -0.20113,-0.0691 -0.1336,0.0414 -0.25625,0.0972 -0.37023,0.16302 -3.32332,-4.38148 -5.56855,-7.77376 -9.32967,-8.43395 -0.68877,-0.92326 -1.59331,-1.80316 -2.77447,-2.60097 -11.18893,-3.66889 -16.09128,-4.46545 -19.88882,-4.91294 0.0139,0.0149 0.0286,0.0289 0.0426,0.0436 -0.44377,-0.0976 -0.88709,-0.19118 -1.3295,-0.28014 l -0.3531,-5.66831 c 6.46119,-2.59562 12.88829,-6.02435 14.27522,-8.72571 0.57361,-1.11724 1.20206,-2.51186 1.85499,-4.10508 -0.031,0.10704 -0.0982,0.35526 -0.11935,0.42437 0.26108,1.03392 1.03074,2.44303 3.27621,2.66508 3.61132,0.35711 12.03988,-9.47229 13.49719,-15.23614 1.45731,-5.76386 0.89236,-12.85811 -3.32264,-14.11055 -2.52901,-0.75147 -5.07148,1.71491 -6.70659,3.81055 0.60992,-3.0554 1.1113,-6.16764 1.45106,-9.24346 1.11715,-10.11339 2.55556,-44.843489 -37.60712,-44.827621 z"
       sodipodi:nodetypes="cscssscscccccssccccccccccscscscscccccccccccccsccssscscc" />
    <text
       xml:space="preserve"
       style="font-style:normal;font-weight:normal;font-size:5.89655px;line-height:1.25;font-family:sans-serif;fill:#000000;fill-opacity:1;stroke:none;stroke-width:0.264583"
       x="237.68797"
       y="228.18085"
       id="text1693"><tspan
         sodipodi:role="line"
         id="tspan1691"
         x="237.68797"
         y="228.18085"
         style="stroke-width:0.264583"><tspan
   style="font-style:normal;font-variant:normal;font-weight:normal;font-stretch:normal;font-family:'Liberation Serif';-inkscape-font-specification:'Liberation Serif'"
   id="tspan1697">Dragon Ball</tspan> ©</tspan><tspan
         sodipodi:role="line"
         x="237.68797"
         y="235.55153"
         style="stroke-width:0.264583"
         id="tspan1695" /></text>
  </g>
  <g
     inkscape:groupmode="layer"
     id="layer2"
     inkscape:label="krillin"
     style="display:inline">
    <path
       style="fill:#ecc997;fill-opacity:1;stroke:#000000;stroke-width:1.05833;stroke-linecap:round;stroke-linejoin:round;stroke-miterlimit:4;stroke-dasharray:none;stroke-opacity:1"
       d="m 194.13877,165.61286 c 12.43102,-4.43405 25.42986,-5.23405 39.12053,-1.6064 l 17.54313,6.18566 c 4.10251,0.33812 6.26205,3.92515 9.8264,8.56699 0.0221,0.0288 0.1853,-1.70028 0.1853,-1.70028 -3.56477,-1.8298 -3.27209,-5.55063 -3.33111,-9.39057 0.003,-1.85407 1.84199,-2.13654 3.32064,-3.14076 -0.73442,-1.1756 -0.47878,-2.31568 -0.031,-2.94152 -0.0475,-6.36116 -3.2293,-14.05579 0.79774,-15.47281 4.02704,-1.41702 6.0647,14.83433 6.83409,13.98076 0.6621,0.53644 4.26251,-14.71331 8.14565,-14.04252 3.88314,0.67079 0.10509,4.98586 0.23558,12.19156 0,0 3.27285,-0.22588 4.06561,1.75672 0.79276,1.9826 1.04677,3.77454 0.4084,4.79139 1.15187,0.33815 2.19053,3.10035 2.02391,4.12252 -0.86397,5.30043 -4.51287,9.3676 -4.51287,9.3676 0.94221,7.89163 0.17238,12.463 2.52586,13.99242 2.16701,12.62766 -8.11018,22.03956 -17.62371,21.69727 -2.50231,-0.09 -7.64555,-1.18599 -12.38849,-3.61143 -12.52146,-6.40319 -29.70918,-13.15344 -36.735,-21.54831 -9.5377,-11.39628 -20.41066,-23.19829 -20.41066,-23.19829 z"
       id="path874"
       sodipodi:nodetypes="cccscccczczczcsscsssc" />
    <path
       style="display:inline;fill:#deaa87;stroke:none;stroke-width:0.264583px;stroke-linecap:butt;stroke-linejoin:miter;stroke-opacity:1"
       d="m 256.88281,197.36286 c 2.92932,-5.48065 2.92932,-5.48065 5.07717,-8.70156 l -0.90846,-6.97633 c -3.41862,5.44418 -3.24887,8.83138 -4.16871,15.67789 z"
       id="path872-6"
       sodipodi:nodetypes="cccc" />
    <path
       style="fill:#deaa87;fill-opacity:1;stroke:none;stroke-width:0.264583px;stroke-linecap:butt;stroke-linejoin:miter;stroke-opacity:1"
       d="m 270.32642,163.20146 c 0.89756,2.57396 1.92492,3.50804 4.85657,3.15619 -2.27878,3.98791 0.80797,6.62729 0.97325,6.91653 -5.4624,0.57252 -6.11158,1.92424 -6.11158,1.92424 0,0 -0.97858,-2.85026 -1.73947,-4.4466 0,0 2.96446,-1.59541 1.3916,-4.2895 -0.0802,-0.75175 -0.043,-1.30739 0.62963,-3.26086 z"
       id="path940"
       sodipodi:nodetypes="ccccccc" />
    <path
       style="fill:#aa0000;stroke:#800000;stroke-width:1.05833;stroke-linecap:round;stroke-linejoin:round;stroke-miterlimit:4;stroke-dasharray:none;stroke-opacity:1"
       d="m 169.7146,174.39507 c 1.04334,-2.89709 16.95559,-10.58303 27.51215,-9.5807 l -1.22494,0.70318 c 11.13645,8.87236 23.03977,15.44408 34.6589,22.86838 10.70241,-20.38445 3.35909,-21.11079 -0.40159,-25.13542 3.55144,0.41849 8.13599,1.1633 18.59981,4.59442 6.93074,4.68132 3.76202,12.37982 3.48817,14.20989 2.84132,5.66222 2.44753,9.64492 3.01549,12.97688 2.16867,7.62736 2.81177,11.54364 1.69434,16.21656 l 1.2433,7.70649 c -18.75327,3.57222 -45.15928,-1.43488 -71.81548,0.14174 z"
       id="path899"
       sodipodi:nodetypes="cccccccccccc" />
    <path
       style="fill:#920000;fill-opacity:1;stroke:none;stroke-width:0.529167;stroke-linecap:round;stroke-linejoin:miter;stroke-miterlimit:4;stroke-dasharray:none;stroke-opacity:1"
       d="m 216.5045,214.98833 c 2.37693,0.22638 8.50507,-0.38833 11.31255,-2.99846 2.80749,-2.61012 9.56464,-8.86189 11.25554,-14.61132 -5.71132,8.72853 -15.97316,14.35774 -22.56809,17.60978 z"
       id="path966"
       sodipodi:nodetypes="czcc" />
    <path
       style="fill:#ecc997;fill-opacity:1;stroke:#000000;stroke-width:1.05833;stroke-linecap:round;stroke-linejoin:miter;stroke-miterlimit:4;stroke-dasharray:none;stroke-opacity:1"
       d="m 203.35194,165.80185 2.12611,-13.22917 22.91481,-0.18899 0.89769,14.41034"
       id="path868"
       sodipodi:nodetypes="cccc" />
    <path
       style="fill:#deaa87;stroke:none;stroke-width:0.264583;stroke-linecap:butt;stroke-linejoin:miter;stroke-miterlimit:4;stroke-dasharray:none;stroke-opacity:1"
       d="m 213.98266,157.85607 c 4.40335,1.27572 13.57059,3.42776 14.69003,7.56605 l -0.62498,-10.47261 z"
       id="path872"
       sodipodi:nodetypes="cccc" />
    <path
       style="fill:#ecc997;fill-opacity:1;stroke:#000000;stroke-width:1.05833;stroke-linecap:butt;stroke-linejoin:miter;stroke-miterlimit:4;stroke-dasharray:none;stroke-opacity:1"
       d="m 179.20033,117.96327 c 1.13272,11.86429 7.78165,28.63584 10.89124,33.80959 1.59605,2.65552 20.78336,9.66261 26.05878,9.55489 5.0627,-0.10337 23.53,-7.09478 25.92515,-11.75986 3.08057,-6.00012 7.81138,-20.1114 9.28761,-33.47551 1.04475,-9.45797 2.38963,-41.93702 -35.17026,-41.922181 -37.5599,0.01484 -37.58746,37.561531 -36.99252,43.793071 z"
       id="path847"
       sodipodi:nodetypes="ssssszs" />
    <path
       style="fill:none;stroke:#000000;stroke-width:0.529167;stroke-linecap:round;stroke-linejoin:miter;stroke-miterlimit:4;stroke-dasharray:none;stroke-opacity:1"
       d="m 193.28444,130.51934 15.9695,0.18899"
       id="path849" />
    <path
       style="fill:none;stroke:#000000;stroke-width:0.529167;stroke-linecap:round;stroke-linejoin:miter;stroke-miterlimit:4;stroke-dasharray:none;stroke-opacity:1"
       d="m 221.44367,130.60441 14.93006,-0.66146"
       id="path851" />
    <path
       style="fill:#000000;stroke:none;stroke-width:0.264583px;stroke-linecap:butt;stroke-linejoin:miter;stroke-opacity:1"
       d="m 202.52511,130.74456 c 0,0 -0.0875,1.75554 1.55916,1.86625 1.64665,0.11071 2.008,-1.86625 2.008,-1.86625 z"
       id="path882"
       sodipodi:nodetypes="czcc" />
    <path
       style="fill:#000000;stroke:none;stroke-width:0.264583px;stroke-linecap:butt;stroke-linejoin:miter;stroke-opacity:1"
       d="m 225.41181,130.36518 c 0,0 -0.0875,1.75554 1.55916,1.86625 1.64665,0.11071 2.008,-1.86625 2.008,-1.86625 z"
       id="path882-4"
       sodipodi:nodetypes="czcc" />
    <path
       style="fill:#000000;stroke:#000000;stroke-width:0.264583;stroke-linecap:round;stroke-linejoin:round;stroke-miterlimit:4;stroke-dasharray:none;stroke-opacity:1"
       d="m 192.23361,105.25695 -0.16537,8.04171 c 10.90975,-4.56182 16.43277,8.71164 19.67604,13.52073 0.63205,-24.70931 -17.17437,-24.25473 -19.51067,-21.56244 z"
       id="path904"
       sodipodi:nodetypes="cccc" />
    <path
       style="fill:#000000;stroke:#000000;stroke-width:0.264583;stroke-linecap:round;stroke-linejoin:round;stroke-miterlimit:4;stroke-dasharray:none;stroke-opacity:1"
       d="m 239.6586,103.9206 0.53286,8.64307 c -12.2795,-2.89139 -19.97409,9.94776 -22.71623,15.12434 2.09706,-23.0183 21.15044,-26.00944 22.18337,-23.76741 z"
       id="path906"
       sodipodi:nodetypes="cccc" />
    <path
       style="fill:none;stroke:#000000;stroke-width:0.264583px;stroke-linecap:round;stroke-linejoin:round;stroke-opacity:1"
       d="m 189.39387,109.24642 0.45101,3.49121 0.10023,-4.34313 0.53454,4.37654 -0.0501,-5.61266 0.63477,5.81311 0.13363,-7.63389"
       id="path908"
       sodipodi:nodetypes="ccccccc" />
    <path
       style="fill:none;stroke:#000000;stroke-width:0.264583px;stroke-linecap:round;stroke-linejoin:round;stroke-opacity:1"
       d="m 242.41344,106.30645 -0.50113,5.62937 -0.25056,-4.37654 -0.31739,3.90882 -0.40088,-5.57925 -0.28398,6.54809 -0.48443,-7.85104"
       id="path910"
       sodipodi:nodetypes="ccccccc" />
    <path
       style="fill:none;stroke:#000000;stroke-width:0.264583px;stroke-linecap:round;stroke-linejoin:round;stroke-opacity:1"
       d="m 192.56769,140.71741 4.44336,-1.93771 -1.46998,1.77067 2.74594,-1.6313 -0.44578,1.18888 1.29598,-1.07991 0.45441,0.71142"
       id="path923"
       sodipodi:nodetypes="ccccccc" />
    <path
       style="fill:none;stroke:#000000;stroke-width:0.264583px;stroke-linecap:round;stroke-linejoin:round;stroke-opacity:1"
       d="m 230.58678,139.38106 4.44336,-1.93771 -1.90429,1.8709 2.91298,-1.73153 -0.61282,1.48956 1.54161,-0.97157 0.966,0.82409"
       id="path925"
       sodipodi:nodetypes="ccccccc" />
    <path
       style="fill:none;stroke:#000000;stroke-width:0.529167;stroke-linecap:round;stroke-linejoin:miter;stroke-miterlimit:4;stroke-dasharray:none;stroke-opacity:1"
       d="m 210.15551,145.62737 c 4.73789,6.03664 8.89275,5.19099 12.49684,-1.37017"
       id="path927"
       sodipodi:nodetypes="cc" />
    <path
       style="fill:#ecc997;fill-opacity:1;stroke:#000000;stroke-width:1.05833;stroke-linecap:round;stroke-linejoin:round;stroke-miterlimit:4;stroke-dasharray:none;stroke-opacity:1"
       d="m 248.34064,127.19737 c 0,0 3.99558,-7.19533 7.93742,-6.02405 3.94184,1.17128 4.46988,7.80612 3.10701,13.19644 -1.36287,5.39032 -9.24505,14.58228 -12.62234,14.24831 -2.09995,-0.20766 -2.81984,-1.52518 -3.064,-2.49209 0.34758,-1.13149 2.19409,-8.06275 2.19409,-8.06275"
       id="path933"
       sodipodi:nodetypes="czzscc" />
    <path
       style="fill:#deaa87;fill-opacity:1;stroke:none;stroke-width:0.264583px;stroke-linecap:butt;stroke-linejoin:miter;stroke-opacity:1"
       d="m 253.21692,127.43962 c -0.62254,1.23761 -2e-4,2.11961 0.50931,2.56957 0.99528,0.34636 1.28268,1.64645 1.44796,1.93569 0.70486,2.69236 -5.24361,10.40523 -7.06504,10.06427 -0.67833,-1.42742 2.63403,-2.94063 2.21377,-5.48434 -0.41037,-1.60621 0.70799,-6.68938 2.894,-9.08519 z"
       id="path936"
       sodipodi:nodetypes="cccccc" />
    <path
       style="fill:#ecc997;fill-opacity:1;stroke:#000000;stroke-width:1.05833;stroke-linecap:round;stroke-linejoin:round;stroke-miterlimit:4;stroke-dasharray:none;stroke-opacity:1"
       d="m 181.60381,127.01608 c 0,0 -2.78673,-6.57399 -6.72857,-5.40271 -3.94184,1.17128 -4.32814,10.59369 -2.96527,15.98401 1.36287,5.39032 8.67809,12.36167 12.05538,12.0277 2.17412,-0.21499 3.06445,-1.99166 3.46497,-3.23026 -0.37972,-1.08634 -1.4455,-5.19557 -1.4455,-5.19557"
       id="path1776"
       sodipodi:nodetypes="czzscc" />
    <path
       style="fill:#deaa87;fill-opacity:1;stroke:none;stroke-width:0.264583px;stroke-linecap:butt;stroke-linejoin:miter;stroke-opacity:1"
       d="m 177.75216,128.19354 c -0.93867,-0.79121 -2.16272,-0.72398 -2.32007,1.55737 0.62575,0.21487 0.92877,0.89911 0.75407,1.78075 -1.02007,1.31734 -0.87203,2.23157 -0.99345,3.15802 0.19718,4.09553 5.29373,9.35286 6.78107,9.26246 0.4323,-0.21364 0.7385,-1.22013 0.55729,-1.51934 -0.56361,-0.93064 -3.00555,-1.02119 -2.5372,-3.66432 1.54626,-1.70644 0.23809,-8.48469 -2.24171,-10.57494 z"
       id="path938"
       sodipodi:nodetypes="sccccscs" />
    <path
       style="fill:none;stroke:#000000;stroke-width:0.529167;stroke-linecap:round;stroke-linejoin:round;stroke-miterlimit:4;stroke-dasharray:none;stroke-opacity:1"
       d="m 175.40532,130.01223 c -0.17253,-0.52808 0.19628,-2.39651 1.46466,-2.3151 1.26839,0.0814 3.68214,4.56519 3.89788,6.99255 0.21574,2.42736 0.0196,4.49554 -2.39457,4.48013"
       id="path1778"
       sodipodi:nodetypes="czzc" />
    <path
       style="fill:none;stroke:#000000;stroke-width:0.529167;stroke-linecap:round;stroke-linejoin:miter;stroke-miterlimit:4;stroke-dasharray:none;stroke-opacity:1"
       d="m 175.19271,134.68968 c -0.0488,-1.49194 1.43181,-4.52752 2.69308,-3.47265"
       id="path1780"
       sodipodi:nodetypes="cc" />
    <path
       style="fill:none;stroke:#000000;stroke-width:0.529167;stroke-linecap:round;stroke-linejoin:round;stroke-miterlimit:4;stroke-dasharray:none;stroke-opacity:1"
       d="m 180.74424,135.44564 c -2.29608,-0.70001 -2.8472,3.32075 -2.36235,4.89006 0.48485,1.5693 2.85848,4.20497 3.68527,3.56715 0.82679,-0.63782 0.56909,-1.19022 0.0472,-1.79538 -0.52185,-0.60516 -1.87355,-0.498 -2.62221,0.14174"
       id="path1782"
       sodipodi:nodetypes="czzzc" />
    <path
       style="fill:none;stroke:#000000;stroke-width:0.529167;stroke-linecap:round;stroke-linejoin:round;stroke-miterlimit:4;stroke-dasharray:none;stroke-opacity:1"
       d="m 255.31671,127.85971 c -1.35088,-2.89943 -4.16626,1.47733 -4.828,5.31221 -0.38278,2.42736 -0.90493,4.07794 1.59276,3.76185"
       id="path1778-5"
       sodipodi:nodetypes="ccc" />
    <path
       style="fill:none;stroke:#000000;stroke-width:0.529167;stroke-linecap:round;stroke-linejoin:miter;stroke-miterlimit:4;stroke-dasharray:none;stroke-opacity:1"
       d="m 253.54151,136.81347 c 1.38435,-1.15082 2.7863,-8.25566 -0.57163,-6.52955"
       id="path1780-0"
       sodipodi:nodetypes="cc" />
    <path
       style="fill:none;stroke:#000000;stroke-width:0.529167;stroke-linecap:round;stroke-linejoin:round;stroke-miterlimit:4;stroke-dasharray:none;stroke-opacity:1"
       d="m 250.41212,134.06151 c 2.49653,-0.51626 1.89504,2.36861 1.41019,3.93792 -0.48484,1.5693 -2.75826,4.52235 -3.55164,4.05157 -0.79338,-0.47077 -0.0512,-1.22362 0.27018,-1.54481 0.3214,-0.32119 1.20538,-0.76527 1.95404,-0.12553"
       id="path1782-9"
       sodipodi:nodetypes="czzzc" />
    <path
       id="path1818"
       style="fill:#d38d5f;fill-opacity:1;stroke:none;stroke-width:0.264583;stroke-linecap:round;stroke-linejoin:round;stroke-miterlimit:4;stroke-dasharray:none"
       d="m 214.18311,106.37328 a 1.3029389,1.3029389 0 0 1 -1.30294,1.30294 1.3029389,1.3029389 0 0 1 -1.30294,-1.30294 1.3029389,1.3029389 0 0 1 1.30294,-1.30294 1.3029389,1.3029389 0 0 1 1.30294,1.30294 z" />
    <path
       id="path1821"
       style="fill:#d38d5f;fill-opacity:1;stroke:none;stroke-width:0.264583;stroke-linecap:round;stroke-linejoin:round;stroke-miterlimit:4;stroke-dasharray:none"
       d="m 220.99848,106.10601 a 1.3029389,1.3029389 0 0 1 -1.30294,1.30294 1.3029389,1.3029389 0 0 1 -1.30294,-1.30294 1.3029389,1.3029389 0 0 1 1.30294,-1.30294 1.3029389,1.3029389 0 0 1 1.30294,1.30294 z" />
    <path
       id="path1823"
       style="fill:#d38d5f;fill-opacity:1;stroke:none;stroke-width:0.264583;stroke-linecap:round;stroke-linejoin:round;stroke-miterlimit:4;stroke-dasharray:none"
       d="m 220.73121,97.286112 a 1.3029389,1.3029389 0 0 1 -1.30294,1.30294 1.3029389,1.3029389 0 0 1 -1.30294,-1.30294 1.3029389,1.3029389 0 0 1 1.30294,-1.30294 1.3029389,1.3029389 0 0 1 1.30294,1.30294 z" />
    <path
       id="path1825"
       style="fill:#d38d5f;fill-opacity:1;stroke:none;stroke-width:0.264583;stroke-linecap:round;stroke-linejoin:round;stroke-miterlimit:4;stroke-dasharray:none"
       d="m 220.33031,89.602113 a 1.3029389,1.3029389 0 0 1 -1.30294,1.30294 1.3029389,1.3029389 0 0 1 -1.30294,-1.30294 1.3029389,1.3029389 0 0 1 1.30294,-1.30294 1.3029389,1.3029389 0 0 1 1.30294,1.30294 z" />
    <path
       id="path1827"
       style="fill:#d38d5f;fill-opacity:1;stroke:none;stroke-width:0.264583;stroke-linecap:round;stroke-linejoin:round;stroke-miterlimit:4;stroke-dasharray:none"
       d="m 213.44812,89.201209 a 1.3029389,1.3029389 0 0 1 -1.30294,1.30294 1.3029389,1.3029389 0 0 1 -1.30294,-1.30294 1.3029389,1.3029389 0 0 1 1.30294,-1.30294 1.3029389,1.3029389 0 0 1 1.30294,1.30294 z" />
    <path
       id="path1829"
       style="fill:#d38d5f;fill-opacity:1;stroke:none;stroke-width:0.264583;stroke-linecap:round;stroke-linejoin:round;stroke-miterlimit:4;stroke-dasharray:none"
       d="m 213.51494,97.018843 a 1.3029389,1.3029389 0 0 1 -1.30294,1.30294 1.3029389,1.3029389 0 0 1 -1.30294,-1.30294 1.3029389,1.3029389 0 0 1 1.30294,-1.30294 1.3029389,1.3029389 0 0 1 1.30294,1.30294 z" />
    <path
       id="rect1833"
       style="fill:#f6e5cd;fill-opacity:1;stroke:none;stroke-width:0.264583;stroke-linecap:round;stroke-linejoin:round;stroke-miterlimit:4;stroke-dasharray:none"
       d="m 188.16914,93.311263 c 0.83573,0.342322 0.88639,1.171738 0.53282,2.127681 l -1.0876,2.940533 c -0.35357,0.955942 -1.15603,1.491139 -1.99176,1.148817 -0.83574,-0.342321 -1.38282,-1.417039 -1.00391,-2.363225 l 1.15183,-2.876293 c 0.37891,-0.946184 1.56288,-1.319835 2.39862,-0.977513 z"
       sodipodi:nodetypes="sssssss" />
    <path
       id="path1836"
       style="fill:#f6e5cd;fill-opacity:1;stroke:none;stroke-width:0.264583;stroke-linecap:round;stroke-linejoin:round;stroke-miterlimit:4;stroke-dasharray:none"
       d="m 214.39123,76.633064 c 1.37538,0.20741 1.38224,1.553429 0.4326,1.827003 -9.46522,1.507141 -16.45249,5.672433 -22.49216,10.886493 -1.39908,0.722362 -2.52978,-1.497399 -1.59617,-2.337227 5.82454,-5.23949 13.87679,-10.400706 23.65573,-10.376269 z"
       sodipodi:nodetypes="cccsc" />
    <path
       style="fill:#ecc997;fill-opacity:1;stroke:#000000;stroke-width:1.05833;stroke-linecap:butt;stroke-linejoin:miter;stroke-miterlimit:4;stroke-dasharray:none;stroke-opacity:1"
       d="m 165.82396,179.45583 c -0.78043,1.22022 -1.17301,3.59836 -2.09121,6.71924 -0.82872,2.8168 -2.98503,17.0892 -2.66651,18.99466 -1.90107,3.28469 -2.1785,15.56083 -2.1785,15.56083 8.81433,0.86976 16.77534,2.26777 30.658,0 0,0 1.14576,-13.18445 -0.93742,-18.54701 5.53401,-12.4452 -3.9227,-25.83171 -9.54569,-27.95159 -5.62299,-2.11988 -8.5803,-2.05961 -13.23867,5.22387 z"
       id="path876"
       sodipodi:nodetypes="sscccczs" />
    <path
       style="fill:none;stroke:#000000;stroke-width:0.529167;stroke-linecap:round;stroke-linejoin:round;stroke-miterlimit:4;stroke-dasharray:none;stroke-opacity:1"
       d="m 262.5589,161.76488 c 1.74714,-0.42653 5.83298,0.0581 7.65059,0.93545"
       id="path878"
       sodipodi:nodetypes="cc" />
    <path
       style="fill:none;stroke:#000000;stroke-width:0.529167;stroke-linecap:round;stroke-linejoin:round;stroke-miterlimit:4;stroke-dasharray:none;stroke-opacity:1"
       d="m 260.80366,164.5275 c 4.91715,-1.10109 10.77977,1.3901 9.36263,4.45198 -1.41713,3.06187 -5.5239,1.82458 -7.79233,1.06838"
       id="path880"
       sodipodi:nodetypes="czc" />
    <path
       style="fill:none;stroke:#000000;stroke-width:0.529167;stroke-linecap:round;stroke-linejoin:miter;stroke-miterlimit:4;stroke-dasharray:none;stroke-opacity:1"
       d="m 276.78572,158.24297 c -1.68611,0.4271 -3.51366,1.31361 -4.88909,2.77021 -1.03023,1.09103 -2.28379,2.91055 -2.19984,5.44914 0.83593,0.88892 0.71313,1.80055 0.71313,1.80055 0.38911,0.34325 1.38087,1.00454 1.72349,0.90526 1.483,-0.42975 3.4071,-5.28985 9.12631,-4.37705"
       id="path883"
       sodipodi:nodetypes="csccsc" />
    <path
       style="fill:none;stroke:#000000;stroke-width:0.529167;stroke-linecap:round;stroke-linejoin:miter;stroke-miterlimit:4;stroke-dasharray:none;stroke-opacity:1"
       d="m 268.30519,170.75182 c 1.08102,1.75296 2.00463,3.44077 1.33635,5.44562"
       id="path885" />
    <path
       style="fill:none;stroke:#000000;stroke-width:0.529167;stroke-linecap:round;stroke-linejoin:miter;stroke-miterlimit:4;stroke-dasharray:none;stroke-opacity:1"
       d="m 281.16754,169.43218 c -0.8148,1.95634 -5.01275,4.37098 -6.58151,3.99234 -3.64527,-1.36939 -2.45751,-3.58511 -1.5702,-4.86096"
       id="path887"
       sodipodi:nodetypes="ccc" />
    <path
       style="fill:none;stroke:#000000;stroke-width:0.529167;stroke-linecap:round;stroke-linejoin:miter;stroke-miterlimit:4;stroke-dasharray:none;stroke-opacity:1"
       d="m 276.15624,173.27418 c 1.46564,0.74624 3.40599,-0.62539 3.55803,-2.01288"
       id="path889"
       sodipodi:nodetypes="cc" />
    <path
       style="fill:none;stroke:#000000;stroke-width:0.529167;stroke-linecap:round;stroke-linejoin:round;stroke-miterlimit:4;stroke-dasharray:none;stroke-opacity:1"
       d="m 266.9617,165.7892 c -0.91653,0.27147 -1.18484,2.55511 -0.33219,3.26148 2.975,-1.25206 1.77821,-2.67444 0.33219,-3.26148 z"
       id="path891"
       sodipodi:nodetypes="ccc" />
    <path
       style="fill:none;stroke:#000000;stroke-width:0.529167;stroke-linecap:round;stroke-linejoin:miter;stroke-miterlimit:4;stroke-dasharray:none;stroke-opacity:1"
       d="m 259.81213,191.88221 c -1.03701,1.70574 -2.13141,3.2967 -2.92932,5.48065"
       id="path893"
       sodipodi:nodetypes="cc" />
    <path
       style="fill:none;stroke:#000000;stroke-width:0.529167;stroke-linecap:round;stroke-linejoin:round;stroke-miterlimit:4;stroke-dasharray:none;stroke-opacity:1"
       d="m 206.23401,170.52655 c 4.75752,-1.48679 12.03208,1.85545 14.88281,2.78757"
       id="path895"
       sodipodi:nodetypes="cc" />
    <path
       style="fill:none;stroke:#000000;stroke-width:0.529167;stroke-linecap:round;stroke-linejoin:round;stroke-miterlimit:4;stroke-dasharray:none;stroke-opacity:1"
       d="m 225.22731,174.92053 c 2.1788,-2.45588 5.44965,-3.13719 8.59896,-4.016"
       id="path897"
       sodipodi:nodetypes="cc" />
    <path
       style="fill:none;stroke:#800000;stroke-width:0.529167;stroke-linecap:round;stroke-linejoin:round;stroke-miterlimit:4;stroke-dasharray:none;stroke-opacity:1"
       d="m 192.31762,179.54584 c 0.89399,4.45495 1.61747,13.70838 -0.56123,18.34316 4.65364,-3.17884 5.10403,-11.56736 5.17736,-14.43533"
       id="path901"
       sodipodi:nodetypes="ccc" />
    <path
       style="fill:none;stroke:#800000;stroke-width:0.529167;stroke-linecap:butt;stroke-linejoin:miter;stroke-miterlimit:4;stroke-dasharray:none;stroke-opacity:1"
       d="m 241.8121,181.20874 c 2.22876,6.83734 -7.88179,18.91723 -16.70435,24.65562"
       id="path903"
       sodipodi:nodetypes="cc" />
    <path
       style="fill:none;stroke:#800000;stroke-width:0.529167;stroke-linecap:round;stroke-linejoin:miter;stroke-miterlimit:4;stroke-dasharray:none;stroke-opacity:1"
       d="m 239.07259,197.37855 c -2.62466,7.07316 -9.45683,13.73833 -14.633,16.43707"
       id="path905"
       sodipodi:nodetypes="cc" />
    <path
       style="fill:none;stroke:#800000;stroke-width:1.05833;stroke-linecap:round;stroke-linejoin:miter;stroke-miterlimit:4;stroke-dasharray:none;stroke-opacity:1"
       d="m 252.3471,182.05482 c -0.58799,-1.6699 -1.573,-2.65384 -2.78418,-3.85286"
       id="path907"
       sodipodi:nodetypes="cc" />
    <path
       style="fill:#002255;stroke:#003380;stroke-width:1.05833;stroke-linecap:round;stroke-linejoin:round;stroke-miterlimit:4;stroke-dasharray:none;stroke-opacity:1"
       d="m 260.52502,178.01227 c -1.79458,0.55537 -1.65546,3.64965 -0.77246,4.23214 -2.38688,1.04922 -2.19942,7.55326 -1.13589,8.75308 5.54846,5.03303 16.00766,4.29736 22.67996,1.27613 1.16378,-3.51776 0.60328,-6.61326 -0.46318,-8.0581 1.22503,-2.30417 -0.0342,-6.29543 -2.06268,-5.93432 -1.87945,1.77202 -12.44207,1.84279 -18.24575,-0.26893 z"
       id="path909"
       sodipodi:nodetypes="ccccccc" />
    <path
       style="fill:#002255;stroke:#003380;stroke-width:0.529167;stroke-linecap:round;stroke-linejoin:round;stroke-miterlimit:4;stroke-dasharray:none;stroke-opacity:1"
       d="m 262.19069,185.36449 c 3.58908,0.28903 6.17415,1.58576 8.45436,1.60739 2.28021,0.0216 7.29929,-0.69055 8.72972,-1.78016"
       id="path911"
       sodipodi:nodetypes="czc" />
    <path
       id="path917"
       style="fill:#f4cb37;fill-opacity:1;stroke:#f4e937;stroke-width:0.529167;stroke-linecap:round;stroke-linejoin:round;stroke-miterlimit:4;stroke-dasharray:none;stroke-opacity:1"
       d="m 254.40952,208.85732 c 0,5.26996 -3.08955,9.74256 -6.07646,9.74255 -2.9869,0 -5.20781,-4.50601 -5.20781,-9.77596 0,-5.26995 3.22317,-11.88071 6.21008,-11.88071 2.98691,-1e-5 5.07419,6.64416 5.07419,11.91412 z"
       sodipodi:nodetypes="sssss" />
    <path
       style="fill:#000000;stroke-width:1"
       d="m 248.13439,215.80909 c -0.25224,-0.24884 -0.2621,-0.31096 -0.2072,-1.30749 l 0.0576,-1.04623 -1.36062,-0.0476 -1.36063,-0.0476 -0.0814,0.53042 c -0.0676,0.44142 0.0703,0.36505 -0.18327,0.5349 -0.70894,-0.51875 -0.60175,-2.46028 -0.55682,-3.05814 l 0.27918,-3.22647 0.4602,0.44129 c 0.25311,0.24269 0.48553,0.44215 0.51653,0.44325 0.0309,6.7e-4 0.003,-0.12809 -0.063,-0.28705 -0.0876,-0.21172 -0.0819,-0.68578 0.0208,-1.77323 l 0.14015,-1.48427 -0.35764,0.26159 c -1.52049,1.11214 -1.69762,1.18563 -1.72023,0.69802 -0.006,-0.15765 0.0324,-0.33559 0.49396,-0.7463 1.33603,-1.18885 2.53122,-2.76383 3.49263,-4.60257 0.28607,-0.54711 0.54921,-1.02066 0.58473,-1.0523 0.0893,-0.0797 1.19995,0.69855 1.24971,0.87577 0.0501,0.17804 -0.25515,0.57159 -0.43824,0.56518 -0.074,-0.002 -0.19859,0.063 -0.27655,0.14568 -0.12448,0.13205 -0.0104,0.155 0.93498,0.1881 l 1.07675,0.0377 0.29077,-0.32565 0.29077,-0.32565 0.41905,0.47544 c 0.23045,0.26149 0.43776,0.56193 0.46063,0.66763 0.0503,0.23271 -0.16698,0.48566 -0.41,0.47716 -0.14627,-0.005 -1.01516,0.96493 -1.03304,1.15331 -0.004,0.0293 0.32949,0.0649 0.73841,0.0792 0.72297,0.0253 0.74945,0.0172 0.96048,-0.28711 0.24778,-0.21432 0.34973,-0.12222 0.48596,0.12685 0.43735,0.71559 0.62743,0.80553 0.40337,1.02483 -0.14684,0.14372 -0.0619,0.49027 -0.19082,1.84786 -0.10913,1.14943 -0.1974,1.68509 -0.29146,1.76891 -0.10534,0.0939 -0.0398,0.23208 0.29858,0.63022 0.44508,0.5237 0.51566,0.85045 0.22974,1.06348 -0.12953,0.0965 -0.20252,0.47999 -0.35762,1.87929 l -0.19492,1.75803 -0.30472,0.20465 c -0.35031,0.23524 -0.62536,0.12771 -0.64508,-0.25228 -0.0103,-0.21579 -0.0572,-0.22444 -1.43331,-0.27261 l -1.42177,-0.0498 -0.0637,0.67098 -0.0637,0.67098 0.61304,0.0118 c 0.78139,0.0151 1.53272,0.0608 1.63273,-0.10017 0.43203,-0.25527 0.40754,-0.48164 0.63366,-0.52875 0.49096,-0.10231 0.89338,0.30099 0.76152,0.69466 -0.12028,0.3591 -0.40059,0.78628 -0.6602,1.02937 -0.20235,0.16404 -1.26407,0.13458 -2.27411,0.13091 l -1.31141,-0.005 z m 0.002,-3.69786 0.0493,-0.51915 -1.35505,-0.0185 -1.35504,-0.0185 -0.0776,0.48923 -0.0777,0.48925 1.38343,0.0484 1.38342,0.0484 z m 3.98012,0.14203 0.0489,-0.51615 -1.42886,-0.05 -1.42886,-0.05 -0.0489,0.51612 -0.0489,0.51613 1.42888,0.05 1.42885,0.05 z m -3.81378,-1.8942 0.0392,-0.41291 -1.37783,-0.0482 -1.37783,-0.0482 -0.0392,0.4129 -0.0392,0.41292 1.37784,0.0482 1.37782,0.0482 z m 3.98041,0.13932 0.0392,-0.41292 -1.42887,-0.05 -1.42884,-0.05 -0.0392,0.41289 -0.0392,0.41292 1.42885,0.05 1.42886,0.05 z m -3.82363,-1.79096 0.0392,-0.4129 -0.91856,-0.0321 c -0.72274,-0.0253 -0.92149,-0.001 -0.93238,0.11351 -0.008,0.0801 -0.16655,0.26098 -0.35321,0.40193 l -0.33938,0.25624 1.23256,0.0432 1.23258,0.0431 z m 3.99826,0.38733 c 0.0561,-0.11644 0.0333,-0.1486 -0.0779,-0.11069 -0.17993,0.0612 -0.44578,-0.20181 -0.425,-0.42061 0.0113,-0.11925 -0.21053,-0.15533 -1.1597,-0.18855 l -1.17371,-0.0411 -0.0392,0.41292 -0.0392,0.41292 1.41794,0.0496 c 1.2098,0.0423 1.42952,0.0255 1.49683,-0.11405 z m -3.83655,-2.09057 0.044,-0.46454 -0.91856,-0.0321 -0.91855,-0.0321 -0.0441,0.46453 -0.0441,0.46453 0.91854,0.0321 0.91856,0.0321 z m 3.47007,0.12145 0.044,-0.46453 -1.17369,-0.0411 -1.1737,-0.0411 -0.0441,0.46452 -0.0441,0.46454 1.17374,0.0411 1.17369,0.0411 z m -3.30347,-1.87633 0.0441,-0.46454 -0.91854,-0.0321 -0.91857,-0.0321 -0.044,0.46453 -0.0441,0.46452 0.91855,0.0321 0.91855,0.0321 z m 3.47006,0.12145 0.0441,-0.46453 -1.1737,-0.0411 -1.17371,-0.0411 -0.0441,0.46453 -0.0441,0.46454 1.17371,0.0411 1.17369,0.0411 z m -1.98407,-1.89576 c 0.4241,-0.82638 0.45371,-0.79885 -0.91118,-0.84663 l -1.206,-0.0422 -0.48662,0.65618 -0.48665,0.65617 1.41119,0.0494 1.41122,0.0494 z"
       id="path934"
       sodipodi:nodetypes="sscccscccsssscssssssssscccsssssccsssssscssscccscsscscsccccccccccccccccccccccccccccccccccccccsssccccssssscccsscccccccccccccccccccccccccccccccccccccssccccc" />
  </g>
</svg>
